<svg id="Layer_1" data-name="Layer 1" xmlns="http://www.w3.org/2000/svg" width="743" height="134.35" viewBox="0 0 743 134.35"><defs><style>.cls-1{fill:#d70f64;}</style></defs><title>foodpanda_logo</title><g id="layer1"><g id="g1061"><g id="g1045"><path id="path1027" class="cls-1" d="M155.77,349.62h10.66V339.39c0-12.37,6.83-20.48,20.47-20.48l6.83,1.28v12.37l-7.25-1.28c-4.27,0-6,2.56-6,6.83v11.51h13.65V362H180.51v51.18H166.86V362H155.77Z" transform="translate(-3.5 -307.82)"/><path id="path1029" class="cls-1" d="M228.7,348.34A33,33,0,0,1,262,381.61c0,19.62-15.35,33.27-33.27,33.27s-33.27-13.65-33.27-33.27C195.43,361.56,211.22,348.34,228.7,348.34Zm0,54.17c12.8,0,19.62-9.38,19.62-20.9s-6.82-20.9-19.62-20.9-19.62,9.39-19.62,20.9C209.08,392.7,215.91,402.51,228.7,402.51Z" transform="translate(-3.5 -307.82)"/><path id="path1031" class="cls-1" d="M300.79,348.34a33,33,0,0,1,33.26,33.27c0,19.62-15.35,33.27-33.26,33.27s-33.27-13.65-33.27-33.27C267.94,361.56,283.3,348.34,300.79,348.34Zm0,54.17c12.79,0,19.62-9.38,19.62-20.9s-6.83-20.9-19.62-20.9-19.62,9.39-19.62,20.9C281.17,392.7,288,402.51,300.79,402.51Z" transform="translate(-3.5 -307.82)"/><path id="path1033" class="cls-1" d="M404.86,413.17H392.49l-1.28-5.54-.86-.85-.85.85A24.85,24.85,0,0,1,372,414.45c-17.48,0-32.41-13.65-32.41-33.27s14.93-33.26,32.41-33.26c6.83,0,13.65,2.56,17.49,6.82l.85.85.86-.85v-35.4h13.65Zm-32-52.88c-12.8,0-19.62,9.38-19.62,20.89s6.82,20.9,19.62,20.9c11.51,0,19.62-9.38,19.62-20.9C392.49,370.1,384.38,360.29,372.87,360.29Z" transform="translate(-3.5 -307.82)"/><path id="path1035" class="cls-1" d="M418.51,349.62h12.36l1.28,5.55.86.85.85-.85a24.84,24.84,0,0,1,17.49-6.83c17.48,0,32.41,13.65,32.41,33.27s-14.93,33.27-32.41,33.27c-6.83,0-13.65-2.56-17.49-6.82l-.85-.86-.86.86v34.12H418.93V349.62Zm31.56,52.89c12.79,0,19.62-9.38,19.62-20.9s-6.83-20.9-19.62-20.9c-11.52,0-19.62,9.39-19.62,20.9C430.45,392.7,438.55,402.51,450.07,402.51Z" transform="translate(-3.5 -307.82)"/><path id="path1037" class="cls-1" d="M517.46,373.51h11.09v-3c0-7.68-5.12-11.09-12.37-11.09-6,0-9.81,3-11.94,8.53l-11.95-2.56c2.56-10.66,11.95-17.48,24.32-17.48,17.06,0,25.59,8.53,25.59,25.16v39.67H531.11l-1.28-8.53c-4.27,6.39-11.09,9.38-20.05,9.38-11.52,0-19.62-6.82-19.62-19.62C489.73,381.61,500.82,373.51,517.46,373.51Zm-6,29A16.11,16.11,0,0,0,523,398.25c3.42-3,5.12-6.83,5.12-11.95V385H516.61c-8.11,0-13.23,3.84-13.23,9.81C503.38,399.1,506.37,402.51,511.49,402.51Z" transform="translate(-3.5 -307.82)"/><path id="path1039" class="cls-1" d="M554.14,349.62h12.37l1.28,5.55.85.85.85-.85c2.56-4.27,9.39-6.83,14.93-6.83,16.21,0,25.59,10.67,25.59,25.59v39.24H596.36V373.93c-.42-8.53-4.69-13.64-13.64-13.64a15,15,0,0,0-14.93,14.5v38.38H554.14Z" transform="translate(-3.5 -307.82)"/><path id="path1041" class="cls-1" d="M683,413.17H670.58l-1.28-5.54-.85-.85-.86.85a24.85,24.85,0,0,1-17.48,6.82c-17.49,0-32.42-13.65-32.42-33.27s14.93-33.26,32.42-33.26c6.82,0,13.64,2.56,17.48,6.82l.86.85.85-.85v-35.4H683Zm-31.56-52.88c-12.8,0-19.62,9.38-19.62,20.89s6.82,20.9,19.62,20.9c11.51,0,19.62-9.38,19.62-20.9C671,370.1,662.9,360.29,651.39,360.29Z" transform="translate(-3.5 -307.82)"/><path id="path1043" class="cls-1" d="M721.76,373.51h11.09v-3c0-7.68-5.12-11.09-12.37-11.09-6,0-9.81,3-11.94,8.53L696.6,365.4c2.56-10.66,11.94-17.48,24.31-17.48,17.06,0,25.59,8.53,25.59,25.16v39.67H735.41l-1.28-8.53c-4.26,6.39-11.09,9.38-20,9.38-11.51,0-19.62-6.82-19.62-19.62-.42-12.37,10.24-20.47,27.3-20.47Zm-6,29a16.13,16.13,0,0,0,11.52-4.26c3.41-3,5.11-6.83,5.11-11.95V385H720.91c-8.11,0-13.22,3.84-13.22,9.81C707.69,399.1,710.67,402.51,715.79,402.51Z" transform="translate(-3.5 -307.82)"/></g><g id="g1059"><path id="path1047" class="cls-1" d="M61.51,393.13c7.67,0,14.07-5.55,14.07-12.37H47.43C47.43,387.58,53.4,393.13,61.51,393.13Z" transform="translate(-3.5 -307.82)"/><g id="g1057"><path id="path1049" class="cls-1" d="M108.85,334.27c3.41-2.56,5.12-6.83,5.12-11.52,0-8.53-6.83-14.93-15.36-14.93a14.51,14.51,0,0,0-12.79,6.83,55.22,55.22,0,0,0-24.74-5.55,58.54,58.54,0,0,0-24.74,5.55,14.51,14.51,0,0,0-12.79-6.83A15.21,15.21,0,0,0,8.19,322.75a16.11,16.11,0,0,0,5.12,11.52,55.59,55.59,0,0,0-9.81,32,57.58,57.58,0,0,0,115.16,0,54.61,54.61,0,0,0-9.81-32ZM61.51,419.14A53.15,53.15,0,0,1,8.62,366.26a54.65,54.65,0,0,1,9-29.86,50,50,0,0,1,20.89-17.91,52,52,0,0,1,23-5.12,52,52,0,0,1,23,5.12,56.52,56.52,0,0,1,20.9,17.91,54.73,54.73,0,0,1,9,29.86A53.15,53.15,0,0,1,61.51,419.14Z" transform="translate(-3.5 -307.82)"/><path id="path1051" class="cls-1" d="M61.51,377.35c.85.42,9.81-3,9.81-7.25,0-2.56-7.25-3-9.81-3s-9.81.43-9.81,3C51.27,374.36,60.65,377.77,61.51,377.35Z" transform="translate(-3.5 -307.82)"/><path id="path1053" class="cls-1" d="M94.78,341.52c-5.12-3.41-16.21-5.12-20.48.42,0,0-5.54,6,0,11.95S83.69,365.83,85,370.52c1.28,5.12,3.41,6.83,7.25,6.83s11.51-6,12.79-15.79A21.4,21.4,0,0,0,94.78,341.52ZM83.26,353.89a3,3,0,1,1,3-3A2.92,2.92,0,0,1,83.26,353.89Z" transform="translate(-3.5 -307.82)"/><path id="path1055" class="cls-1" d="M48.28,341.94c-4.26-5.54-15.35-3.83-20.47-.42s-11.09,10.23-10.23,20,8.53,15.79,12.79,15.79c3.84,0,6-2.14,7.25-6.83,1.28-5.12,5.55-10.66,10.66-16.63A8.58,8.58,0,0,0,48.28,341.94Zm-8.1,11.95a3,3,0,1,1,3-3A2.91,2.91,0,0,1,40.18,353.89Z" transform="translate(-3.5 -307.82)"/></g></g></g></g></svg>